<?xml version="1.0" standalone="no"?><!DOCTYPE svg PUBLIC "-//W3C//DTD SVG 1.1//EN" "http://www.w3.org/Graphics/SVG/1.1/DTD/svg11.dtd"><svg t="1600132988882" class="icon" viewBox="0 0 1024 1024" version="1.1" xmlns="http://www.w3.org/2000/svg" p-id="6079" xmlns:xlink="http://www.w3.org/1999/xlink" width="200" height="200"><defs><style type="text/css"></style></defs><path d="M128 896h816c8.837 0 16 7.163 16 16v32c0 8.837-7.163 16-16 16H80c-8.837 0-16-7.163-16-16V80c0-8.837 7.163-16 16-16h32c8.837 0 16 7.163 16 16v816z m96-325h48c8.837 0 16 7.163 16 16v220c0 8.837-7.163 16-16 16h-48c-8.837 0-16-7.163-16-16V587c0-8.837 7.163-16 16-16z m360-112h48c8.837 0 16 7.163 16 16v332c0 8.837-7.163 16-16 16h-48c-8.837 0-16-7.163-16-16V475c0-8.837 7.163-16 16-16zM404 248h48c8.837 0 16 7.163 16 16v543c0 8.837-7.163 16-16 16h-48c-8.837 0-16-7.163-16-16V264c0-8.837 7.163-16 16-16z m360-99h48c8.837 0 16 7.163 16 16v642c0 8.837-7.163 16-16 16h-48c-8.837 0-16-7.163-16-16V165c0-8.837 7.163-16 16-16z" p-id="6080"></path></svg>