<?xml version="1.0" standalone="no"?><!DOCTYPE svg PUBLIC "-//W3C//DTD SVG 1.1//EN" "http://www.w3.org/Graphics/SVG/1.1/DTD/svg11.dtd"><svg t="1600132965472" class="icon" viewBox="0 0 1024 1024" version="1.1" xmlns="http://www.w3.org/2000/svg" p-id="4267" xmlns:xlink="http://www.w3.org/1999/xlink" width="200" height="200"><defs><style type="text/css"></style></defs><path d="M0 0h1024v1024H0z" fill="#FFFFFF" p-id="4268"></path><path d="M512 80C273.794 80 80 273.794 80 512s193.794 432 432 432 432-193.794 432-432S750.206 80 512 80m0-80c282.77 0 512 229.23 512 512S794.77 1024 512 1024 0 794.77 0 512 229.23 0 512 0z" fill="#707070" p-id="4269"></path><path d="M552 392v344a40 40 0 0 1-80 0V392a40 40 0 0 1 80 0z" fill="#707070" p-id="4270"></path><path d="M452 300v92a40 40 0 0 1-80 0v-92a40 40 0 0 1 80 0z" fill="#707070" p-id="4271"></path><path d="M652 300v92a40 40 0 0 1-80 0v-92a40 40 0 0 1 80 0z" fill="#707070" p-id="4272"></path><path d="M336 352h354a40 40 0 0 1 0 80H336a40 40 0 0 1 0-80z" fill="#707070" p-id="4273"></path><path d="M352 512h320a40 40 0 0 1 0 80H352a40 40 0 0 1 0-80z" fill="#707070" p-id="4274"></path></svg>