<?xml version="1.0" standalone="no"?><!DOCTYPE svg PUBLIC "-//W3C//DTD SVG 1.1//EN" "http://www.w3.org/Graphics/SVG/1.1/DTD/svg11.dtd"><svg t="1600153366655" class="icon" viewBox="0 0 1024 1024" version="1.1" xmlns="http://www.w3.org/2000/svg" p-id="2740" xmlns:xlink="http://www.w3.org/1999/xlink" width="200" height="200"><defs><style type="text/css"></style></defs><path d="M895.063 350.163c-20.941-49.511-50.914-93.969-89.085-132.141-38.172-38.171-82.63-68.144-132.141-89.085C622.562 107.249 568.111 96.252 512 96.252c-56.112 0-110.562 10.997-161.837 32.685-49.511 20.941-93.969 50.914-132.141 89.085s-68.144 82.63-89.085 132.141C107.249 401.438 96.252 455.888 96.252 512c0 56.111 10.997 110.562 32.685 161.838 20.941 49.511 50.914 93.969 89.085 132.141 38.171 38.171 82.63 68.144 132.141 89.085 51.276 21.688 105.726 32.685 161.837 32.685 56.111 0 110.562-10.997 161.838-32.685 49.511-20.941 93.969-50.914 132.141-89.085 38.171-38.172 68.144-82.63 89.085-132.141 21.688-51.276 32.685-105.727 32.685-161.838-0.001-56.112-10.998-110.562-32.686-161.837zM512 864.252c-194.232 0-352.252-158.02-352.252-352.252S317.768 159.748 512 159.748 864.252 317.768 864.252 512 706.232 864.252 512 864.252z" p-id="2741"></path><path d="M672 512c17.673 0 32-14.327 32-32s-14.327-32-32-32h-89.245l72.795-72.795c12.496-12.497 12.497-32.757 0-45.255-12.498-12.497-32.759-12.497-45.255 0L512 428.245l-98.295-98.294c-12.496-12.497-32.757-12.497-45.255 0-12.497 12.498-12.496 32.758 0 45.255L441.246 448H352c-17.673 0-32 14.327-32 32s14.327 32 32 32h127v64H352c-17.673 0-32 14.326-32 32s14.327 32 32 32h127v72c0 17.674 14.326 32 32 32s32-14.326 32-32v-72h129c17.673 0 32-14.326 32-32s-14.327-32-32-32H543v-64h129z" p-id="2742"></path></svg>